<?xml version="1.0" encoding="utf-8"?>
<!-- Generator: Adobe Illustrator 19.0.0, SVG Export Plug-In . SVG Version: 6.00 Build 0)  -->
<svg version="1.1" id="Logo_final" xmlns="http://www.w3.org/2000/svg" xmlns:xlink="http://www.w3.org/1999/xlink" x="0px" y="0px"
	 viewBox="0 0 680.3 169.6" style="enable-background:new 0 0 680.3 169.6;" xml:space="preserve">
<style type="text/css">
	.st0{fill:#00ADD8;}
	.st1{fill:#C4D600;}
</style>
<g id="XMLID_387_">
	<path id="XMLID_2832_" class="st0" d="M307.5,56.7c2.7-2.6,4-5.9,4-10.2v-8.3c0-4.3-1.3-7.6-4-10.2l-0.1-0.1
		c-2.8-2.5-6.5-3.8-11.1-3.8h-77.2v78.1h77.2c4.6,0,8.4-1.3,11.2-3.9c2.7-2.5,4-5.9,4-10.3v-8.3c0-4.3-1.3-7.7-4-10.2
		c-1.1-1-2.4-1.9-3.8-2.5l-9.1-4l9.1-3.9C305.1,58.5,306.4,57.7,307.5,56.7z M296,71.3c2.4,2,3.6,5.1,3.6,9.4c0,4.3-1.2,7.5-3.5,9.4
		c-2.2,1.8-4.9,2.7-8.2,2.7h-56.8V68.7h56.8C291.1,68.7,293.8,69.6,296,71.3z M296.1,54.6l-0.1,0.1c-2.1,1.7-4.8,2.6-8.1,2.6h-56.8
		V33.1h56.8c3.2,0,5.9,0.9,8.1,2.6c1.6,1.3,3.6,4.1,3.6,9.5C299.5,49.4,298.4,52.6,296.1,54.6z"/>
	<path id="XMLID_2829_" class="st0" d="M99.5,57c3-3,4.4-6.9,4.4-12V24.6c0-5.1-1.5-9-4.5-12c-3-3-7.1-4.5-12.3-4.5H0v94.3h11.9
		V61.6h51.9l20.5,40.9h17.2L80.9,62l7.8-0.5C93.2,61.2,96.7,59.8,99.5,57z M87.7,45.8c-2.6,2.1-5.9,3.1-9.8,3.1h-66V20.7h66
		c3.9,0,7.2,1,9.8,3.1c2.9,2.3,4.3,6,4.3,11C92,39.8,90.6,43.5,87.7,45.8z"/>
	<g id="XMLID_2820_">
		<path id="XMLID_2826_" class="st0" d="M207.6,81.7c0,13.7-11.7,20.5-35.2,20.5h-22c-23.3,0-35-6.8-35-20.4V44.2
			c0-13.5,11.7-20.3,35-20.3h22c23.5,0,35.2,6.8,35.2,20.3V81.7z M195.8,44.9c0-7.9-6.5-11.9-19.4-11.9h-28.4
			c-13.7,0-20.6,4-20.6,11.9v36.6c0,7.5,6.9,11.3,20.6,11.3h27.7c13.4,0,20.1-3.8,20.1-11.3V44.9z"/>
	</g>
	<g id="XMLID_2679_">
		<path id="XMLID_2745_" class="st1" d="M379.4,159.8h-5.1c-1.8,0-3.3-0.2-4.5-0.5c-1.3-0.4-2.4-1-3.2-1.8c-0.8-0.9-1.4-2-1.7-3.3
			c-0.3-1.2-0.4-2.6-0.4-4.2v-8.7h-2.7c-1.2,0-2-0.8-2-2.1v-3.5c0-1.2,0.8-2.1,2-2.1h2.7v-4.4c0-1.3,0.9-2.2,2.2-2.2h4.2
			c1.3,0,2.2,0.9,2.2,2.2v4.4h6.1c1.2,0,2,0.8,2,2.1v3.5c0,1.2-0.8,2.1-2,2.1H373v8.7c0,1.2,0.3,1.6,0.4,1.8c0,0,0.4,0.4,1.9,0.4
			h4.1c1.2,0,2,0.8,2,2.1v3.5C381.4,158.9,380.6,159.8,379.4,159.8z"/>
		<path id="XMLID_2744_" class="st1" d="M407.9,159.8h-11.8c-2,0-3.7-0.2-5.1-0.5c-1.5-0.4-2.7-1-3.6-1.8c-0.9-0.9-1.6-2-2-3.3
			c-0.4-1.2-0.6-2.7-0.6-4.4v-13.9c0-1.4,0.9-2.3,2.3-2.3h4.1c1.3,0,2.2,0.9,2.2,2.3v12.4c0,0.8,0,1.5,0.1,2
			c0.1,0.4,0.2,0.7,0.3,0.8c0.1,0.2,0.4,0.3,0.7,0.4c0.4,0.1,1.1,0.2,1.9,0.2h10.9c0.8,0,1.5-0.1,2-0.2c0.4-0.1,0.6-0.2,0.8-0.4
			c0.2-0.2,0.3-0.5,0.4-0.8c0.1-0.5,0.2-1.2,0.2-2v-12.4c0-1.4,0.9-2.3,2.2-2.3h4.1c1.3,0,2.2,0.9,2.2,2.3v13.9
			c0,1.7-0.2,3.1-0.6,4.4c-0.4,1.3-1.1,2.4-2,3.3c-0.9,0.8-2.2,1.5-3.7,1.8C411.6,159.6,409.9,159.8,407.9,159.8z"/>
		<g id="XMLID_2709_">
			<path id="XMLID_2733_" class="st1" d="M471.9,135.7c1.9,0,3.6,0.2,4.9,0.5c1.3,0.3,2.4,0.9,3.2,1.6c0.8,0.7,1.4,1.7,1.7,2.8
				c0.3,1.1,0.5,2.5,0.5,4.1V159c0,0.7-0.3,1-1,1H477c-0.6,0-1-0.3-1-1v-12.9c0-0.9-0.1-1.7-0.2-2.3c-0.1-0.6-0.3-1.1-0.7-1.5
				c-0.3-0.4-0.8-0.6-1.4-0.8c-0.6-0.2-1.4-0.2-2.3-0.2h-7.7V159c0,0.7-0.3,1-1,1h-4.3c-0.6,0-1-0.3-1-1v-17.7h-7.4
				c-0.9,0-1.7,0.1-2.3,0.2c-0.6,0.2-1.1,0.4-1.5,0.8c-0.4,0.4-0.6,0.9-0.8,1.5c-0.1,0.6-0.2,1.4-0.2,2.3V159c0,0.7-0.3,1-1,1h-4.3
				c-0.7,0-1-0.3-1-1v-14.4c0-1.6,0.2-3,0.5-4.1c0.3-1.1,0.9-2.1,1.7-2.8c0.8-0.7,1.9-1.3,3.2-1.6c1.3-0.3,3-0.5,4.9-0.5H471.9z"/>
			<path id="XMLID_2731_" class="st1" d="M495.4,135.7c0.6,0,1,0.3,1,1v12.8c0,0.9,0.1,1.7,0.2,2.3c0.1,0.6,0.3,1.1,0.7,1.5
				c0.3,0.4,0.8,0.6,1.4,0.8c0.6,0.2,1.4,0.2,2.3,0.2h11.2c1,0,1.7-0.1,2.4-0.2c0.6-0.2,1.1-0.4,1.5-0.8c0.4-0.4,0.6-0.9,0.8-1.5
				c0.1-0.6,0.2-1.4,0.2-2.3v-12.8c0-0.7,0.3-1,1-1h4.3c0.6,0,1,0.3,1,1V151c0,1.6-0.2,3-0.5,4.1c-0.3,1.1-0.9,2.1-1.7,2.8
				c-0.8,0.7-1.9,1.2-3.2,1.6c-1.3,0.3-3,0.5-4.9,0.5h-12.2c-2,0-3.6-0.2-4.9-0.5c-1.3-0.3-2.4-0.8-3.2-1.6
				c-0.8-0.7-1.4-1.7-1.7-2.8c-0.3-1.1-0.5-2.5-0.5-4.1v-14.4c0-0.7,0.3-1,1-1H495.4z"/>
			<path id="XMLID_2729_" class="st1" d="M553.9,135.7c1.9,0,3.6,0.2,4.9,0.5c1.3,0.3,2.4,0.9,3.2,1.6c0.8,0.7,1.4,1.7,1.7,2.8
				c0.3,1.1,0.5,2.5,0.5,4.1V159c0,0.7-0.3,1-1,1H559c-0.6,0-1-0.3-1-1v-12.9c0-0.9-0.1-1.7-0.2-2.3c-0.1-0.6-0.3-1.1-0.7-1.5
				c-0.3-0.4-0.8-0.6-1.4-0.8c-0.6-0.2-1.3-0.2-2.3-0.2H542c-0.9,0-1.7,0.1-2.3,0.2c-0.6,0.2-1.1,0.4-1.5,0.8
				c-0.4,0.4-0.6,0.9-0.8,1.5c-0.1,0.6-0.2,1.4-0.2,2.3V159c0,0.7-0.3,1-1,1H532c-0.7,0-1-0.3-1-1v-14.4c0-1.6,0.2-3,0.5-4.1
				c0.3-1.1,0.9-2.1,1.7-2.8c0.8-0.7,1.9-1.3,3.2-1.6c1.3-0.3,3-0.5,4.9-0.5H553.9z"/>
			<path id="XMLID_2726_" class="st1" d="M598.7,135.7v-7.9c0-0.6,0.3-1,1-1h4.3c0.6,0,1,0.3,1,1V151c0,1.6-0.2,3-0.5,4.1
				c-0.3,1.1-0.9,2.1-1.7,2.8c-0.8,0.7-1.9,1.2-3.2,1.6c-1.3,0.3-3,0.5-4.9,0.5h-12.2c-2,0-3.6-0.2-5-0.5c-1.3-0.3-2.4-0.8-3.2-1.6
				c-0.8-0.7-1.4-1.7-1.7-2.8c-0.3-1.1-0.5-2.5-0.5-4.1v-6.4c0-1.6,0.2-3,0.5-4.1c0.3-1.1,0.9-2.1,1.7-2.8c0.8-0.7,1.9-1.3,3.2-1.6
				c1.3-0.3,3-0.5,5-0.5H598.7z M593.9,154.7c1,0,1.7-0.1,2.4-0.2c0.6-0.2,1.1-0.4,1.5-0.8c0.4-0.4,0.6-0.9,0.8-1.5
				c0.1-0.6,0.2-1.4,0.2-2.3V141h-15.8c-0.9,0-1.7,0.1-2.3,0.2c-0.6,0.2-1.1,0.4-1.5,0.8c-0.4,0.4-0.6,0.9-0.8,1.5
				c-0.1,0.6-0.2,1.4-0.2,2.3v3.9c0,0.9,0.1,1.7,0.2,2.3c0.1,0.6,0.4,1.1,0.8,1.5c0.4,0.4,0.9,0.6,1.5,0.8c0.6,0.2,1.4,0.2,2.3,0.2
				H593.9z"/>
			<path id="XMLID_2711_" class="st1" d="M635.2,135.7c1.9,0,3.6,0.2,4.9,0.5c1.3,0.3,2.4,0.9,3.2,1.6c0.8,0.7,1.4,1.7,1.7,2.8
				c0.3,1.1,0.5,2.5,0.5,4.1v6.4c0,1.6-0.2,3-0.5,4.1c-0.3,1.1-0.9,2.1-1.7,2.8c-0.8,0.7-1.9,1.2-3.2,1.6c-1.3,0.3-3,0.5-4.9,0.5
				h-12.3c-2,0-3.6-0.2-5-0.5c-1.3-0.3-2.4-0.8-3.2-1.6c-0.8-0.7-1.4-1.7-1.7-2.8c-0.3-1.1-0.5-2.5-0.5-4.1v-6.4
				c0-1.6,0.2-3,0.5-4.1c0.3-1.1,0.9-2.1,1.7-2.8c0.8-0.7,1.9-1.3,3.2-1.6c1.3-0.3,3-0.5,5-0.5H635.2z M618.7,149.9
				c0,0.9,0.1,1.7,0.2,2.3c0.1,0.6,0.4,1.1,0.8,1.5c0.4,0.4,0.9,0.6,1.5,0.8c0.6,0.2,1.4,0.2,2.3,0.2h11.1c1,0,1.7-0.1,2.4-0.2
				c0.6-0.2,1.1-0.4,1.5-0.8c0.4-0.4,0.6-0.9,0.8-1.5c0.1-0.6,0.2-1.4,0.2-2.3v-4.2c0-0.9-0.1-1.7-0.2-2.3s-0.4-1.1-0.8-1.5
				c-0.4-0.4-0.9-0.6-1.5-0.8c-0.6-0.1-1.4-0.2-2.4-0.2h-11.1c-0.9,0-1.7,0.1-2.3,0.2c-0.6,0.1-1.1,0.4-1.5,0.8
				c-0.4,0.4-0.6,0.9-0.8,1.5c-0.1,0.6-0.2,1.4-0.2,2.3V149.9z"/>
		</g>
		<g id="XMLID_2680_">
			<path id="XMLID_2698_" class="st1" d="M120,125.7c0.6,0,0.9,0.4,0.9,1.1v32c0,0.7-0.3,1.1-0.9,1.1h-4.6c-0.6,0-1-0.4-1-1.1v-32
				c0-0.7,0.3-1.1,1-1.1H120z"/>
			<path id="XMLID_2695_" class="st1" d="M160.6,136.5c1.9,0,3.5,0.2,4.8,0.5c1.3,0.3,2.3,0.8,3.1,1.5c0.8,0.7,1.3,1.6,1.7,2.7
				c0.3,1.1,0.5,2.4,0.5,4v13.9c0,0.6-0.3,0.9-0.9,0.9h-4.1c-0.6,0-0.9-0.3-0.9-0.9v-12.5c0-0.9-0.1-1.6-0.2-2.3
				c-0.1-0.6-0.3-1.1-0.6-1.5c-0.3-0.4-0.7-0.6-1.3-0.8c-0.6-0.2-1.3-0.2-2.2-0.2h-7.4v17.2c0,0.6-0.3,0.9-1,0.9h-4.1
				c-0.6,0-0.9-0.3-0.9-0.9V142h-7.2c-0.9,0-1.7,0.1-2.2,0.2c-0.6,0.2-1.1,0.4-1.4,0.8c-0.4,0.4-0.6,0.8-0.7,1.5
				c-0.1,0.6-0.2,1.4-0.2,2.3v12.5c0,0.6-0.3,0.9-0.9,0.9h-4.1c-0.6,0-1-0.3-1-0.9v-13.9c0-1.5,0.2-2.9,0.5-4c0.3-1.1,0.9-2,1.7-2.7
				c0.8-0.7,1.8-1.2,3.1-1.5c1.3-0.3,2.9-0.5,4.8-0.5H160.6z"/>
			<path id="XMLID_2692_" class="st1" d="M200.2,136.5c1.9,0,3.5,0.2,4.8,0.5c1.3,0.3,2.3,0.8,3.1,1.5c0.8,0.7,1.3,1.6,1.7,2.7
				c0.3,1.1,0.5,2.4,0.5,4v6.2c0,1.5-0.2,2.9-0.5,4c-0.3,1.1-0.9,2-1.7,2.7c-0.8,0.7-1.8,1.2-3.1,1.5c-1.3,0.3-2.9,0.5-4.8,0.5
				h-15.9v8.6c0,0.6-0.3,0.9-0.9,0.9h-4.1c-0.6,0-1-0.3-1-0.9v-23.4c0-1.5,0.2-2.9,0.5-4c0.3-1.1,0.9-2,1.7-2.7
				c0.8-0.7,1.8-1.2,3.1-1.5c1.3-0.3,2.9-0.5,4.8-0.5H200.2z M184.3,155h15.3c0.9,0,1.7-0.1,2.3-0.2c0.6-0.1,1.1-0.4,1.4-0.8
				c0.4-0.4,0.6-0.9,0.7-1.5c0.1-0.6,0.2-1.4,0.2-2.3v-3.8c0-0.9-0.1-1.6-0.2-2.3c-0.1-0.6-0.4-1.1-0.7-1.5
				c-0.4-0.4-0.8-0.6-1.4-0.8c-0.6-0.2-1.4-0.2-2.3-0.2h-10.7c-0.9,0-1.7,0.1-2.2,0.2c-0.6,0.2-1.1,0.4-1.4,0.8
				c-0.4,0.4-0.6,0.8-0.7,1.5c-0.1,0.6-0.2,1.4-0.2,2.3V155z"/>
			<path id="XMLID_2689_" class="st1" d="M236.6,136.5c1.9,0,3.5,0.2,4.8,0.5c1.3,0.3,2.3,0.8,3.1,1.5c0.8,0.7,1.3,1.6,1.7,2.7
				c0.3,1.1,0.5,2.4,0.5,4v11.4c0,0.7,0,1.3-0.1,1.7c-0.1,0.4-0.3,0.8-0.5,1.1c-0.2,0.3-0.6,0.4-1,0.5c-0.4,0.1-0.9,0.2-1.5,0.2
				h-20.1c-1.2,0-2.3-0.1-3.1-0.4c-0.8-0.2-1.5-0.6-2-1.1c-0.5-0.5-0.9-1.1-1.1-1.9c-0.2-0.8-0.3-1.7-0.3-2.8V152
				c0-0.9,0.1-1.7,0.3-2.4c0.2-0.7,0.6-1.3,1.1-1.8c0.5-0.5,1.2-0.9,2-1.1c0.8-0.2,1.9-0.4,3.1-0.4h17.2v-0.8c0-0.7-0.1-1.3-0.2-1.8
				c-0.1-0.5-0.4-0.9-0.7-1.2c-0.3-0.3-0.8-0.5-1.4-0.7c-0.6-0.1-1.4-0.2-2.3-0.2h-17.7c-0.5,0-0.8-0.3-0.8-0.8v-3.6
				c0-0.5,0.3-0.8,0.8-0.8H236.6z M239.4,155.4c0.5,0,0.8-0.1,1-0.3c0.2-0.2,0.3-0.6,0.3-1.1v-3.8h-15.5c-0.9,0-1.5,0.2-1.8,0.5
				c-0.4,0.4-0.5,0.9-0.5,1.6v0.9c0,0.8,0.2,1.3,0.5,1.7c0.4,0.4,1,0.5,1.8,0.5H239.4z"/>
			<path id="XMLID_2686_" class="st1" d="M279.8,136.3c0.5,0,0.8,0.3,0.8,0.8v3.6c0,0.5-0.3,0.8-0.8,0.8h-16.4
				c-0.9,0-1.7,0.1-2.3,0.2c-0.6,0.2-1.1,0.4-1.4,0.8c-0.3,0.4-0.6,0.8-0.7,1.5c-0.1,0.6-0.2,1.4-0.2,2.3v3.8c0,0.9,0.1,1.7,0.2,2.3
				c0.1,0.6,0.4,1.1,0.7,1.4c0.3,0.4,0.8,0.6,1.4,0.8c0.6,0.2,1.4,0.2,2.3,0.2h16.4c0.5,0,0.8,0.3,0.8,0.8v3.6
				c0,0.5-0.3,0.8-0.8,0.8h-17c-1.9,0-3.5-0.2-4.8-0.5c-1.3-0.3-2.3-0.8-3.1-1.5c-0.8-0.7-1.3-1.6-1.7-2.7c-0.3-1.1-0.5-2.4-0.5-4
				V145c0-1.5,0.2-2.9,0.5-4c0.3-1.1,0.9-2,1.7-2.7c0.8-0.7,1.8-1.2,3.1-1.5c1.3-0.3,2.9-0.5,4.8-0.5H279.8z"/>
			<path id="XMLID_2684_" class="st1" d="M289.9,136.3v-5.7c0-0.6,0.3-0.9,0.9-0.9h4.2c0.6,0,0.9,0.3,0.9,0.9v5.7h7.4
				c0.5,0,0.8,0.3,0.8,0.8v3.5c0,0.5-0.3,0.8-0.8,0.8H296v10c0,1.2,0.2,2.1,0.7,2.6c0.5,0.6,1.4,0.8,2.8,0.8h4.1
				c0.5,0,0.8,0.3,0.8,0.8v3.5c0,0.5-0.3,0.8-0.8,0.8h-5.1c-1.7,0-3.1-0.2-4.2-0.5c-1.1-0.3-2-0.8-2.6-1.5c-0.7-0.7-1.1-1.6-1.4-2.7
				c-0.3-1.1-0.4-2.4-0.4-3.9v-10h-4c-0.5,0-0.8-0.3-0.8-0.8V137c0-0.5,0.3-0.8,0.8-0.8H289.9z"/>
			<path id="XMLID_2681_" class="st1" d="M329.1,136.3c1.9,0,3.5,0.2,4.8,0.5c1.3,0.3,2.3,0.8,3.1,1.5c0.8,0.7,1.3,1.6,1.7,2.7
				c0.3,1.1,0.5,2.4,0.5,4v11.4c0,0.7,0,1.3-0.1,1.7c-0.1,0.4-0.3,0.8-0.5,1.1c-0.2,0.3-0.6,0.4-1,0.5c-0.4,0.1-0.9,0.2-1.5,0.2
				h-20.1c-1.2,0-2.3-0.1-3.1-0.4c-0.8-0.2-1.5-0.6-2-1.1c-0.5-0.5-0.9-1.1-1.1-1.9c-0.2-0.8-0.3-1.7-0.3-2.8v-2.1
				c0-0.9,0.1-1.7,0.3-2.4c0.2-0.7,0.6-1.3,1.1-1.8c0.5-0.5,1.2-0.9,2-1.1c0.8-0.2,1.9-0.4,3.1-0.4h17.2v-0.8c0-0.7-0.1-1.3-0.2-1.8
				c-0.1-0.5-0.4-0.9-0.7-1.2c-0.3-0.3-0.8-0.5-1.4-0.7c-0.6-0.1-1.4-0.2-2.3-0.2h-17.7c-0.5,0-0.8-0.3-0.8-0.8V137
				c0-0.5,0.3-0.8,0.8-0.8H329.1z M331.9,155.1c0.5,0,0.8-0.1,1-0.3c0.2-0.2,0.3-0.6,0.3-1.1v-3.8h-15.5c-0.9,0-1.5,0.2-1.8,0.5
				c-0.4,0.4-0.5,0.9-0.5,1.6v0.9c0,0.8,0.2,1.3,0.5,1.7c0.4,0.4,1,0.5,1.8,0.5H331.9z"/>
		</g>
	</g>
	<polygon id="XMLID_2678_" class="st0" points="466.6,102.2 478.8,102.2 478.8,33.1 518.8,33.1 518.8,24 426.6,24 426.6,33.1 
		466.6,33.1 	"/>
	<g id="XMLID_2671_">
		<path id="XMLID_2675_" class="st1" d="M668.3,79.4c-6.6,0-12,5.1-12,11.4c0,6.3,5.4,11.4,12,11.4c6.6,0,12-5.1,12-11.4
			C680.3,84.6,674.9,79.4,668.3,79.4 M668.3,100.9c-5.8,0-10.5-4.5-10.5-10c0-5.5,4.7-10,10.5-10c5.8,0,10.5,4.5,10.5,10
			C678.8,96.4,674.1,100.9,668.3,100.9"/>
		<path id="XMLID_2672_" class="st1" d="M670.4,91.4c0.9-0.2,1.6-0.5,2.2-1.1l0,0c0.6-0.7,0.9-1.5,0.9-2.4c0-1.2-0.4-2.1-1.3-2.8
			c-0.8-0.6-2-0.9-3.4-0.9h-4.4v13.2h2v-5.8h1.7l3.6,5.8h2.4L670.4,91.4z M668.6,90.2h-2.4v-4.4h2.4c0.6,0,1.1,0.1,1.5,0.2
			c0.4,0.1,0.8,0.2,1,0.5c0.2,0.2,0.4,0.4,0.5,0.7c0.1,0.3,0.2,0.5,0.2,0.8c0,0.3-0.1,0.6-0.2,0.9c-0.1,0.3-0.3,0.5-0.5,0.7
			c-0.2,0.2-0.6,0.4-1,0.5C669.7,90.1,669.2,90.2,668.6,90.2"/>
	</g>
	<path id="XMLID_2669_" class="st1" d="M541.9,24v78.2h-11.8V24H541.9z"/>
	<polygon id="XMLID_2668_" class="st1" points="627.2,102.3 645.6,102.3 608.7,63.2 645.6,24.1 627.2,24.1 599.6,53.6 571.8,24.1 
		553.4,24.1 590.3,63.2 553.4,102.3 571.8,102.3 599.6,72.9 	"/>
	<g id="XMLID_2665_">
		<path id="XMLID_2666_" class="st0" d="M350.2,76c2,0.9,3.9,1.7,5.8,2.3c1.9,0.7,3.7,1.2,5.6,1.5c1.9,0.4,3.8,0.6,5.7,0.6
			c2,0,4.1-0.1,6.3-0.4c2.2-0.3,4.3-0.8,6.1-1.3c1.8-0.6,3.6-1.3,5.2-2.1c1.6-0.8,3.3-1.8,4.8-2.9c1.6-1.1,3.2-2.4,4.9-3.7l2.6,2.6
			c-3,2.9-6.6,5.3-10.6,7.3c-4,1.9-8.2,3.2-12.6,3.8c-4.2,0.6-8.5,0.5-12.9-0.2c-4.4-0.7-8.6-2.2-12.5-4.3L350.2,76z"/>
	</g>
	<g>
		<ellipse id="XMLID_2664_" class="st1" cx="387.6" cy="55.5" rx="6.7" ry="6.6"/>
		<ellipse id="XMLID_2663_" class="st1" cx="352.4" cy="55.5" rx="6.7" ry="6.6"/>
	</g>
	<path id="XMLID_2655_" class="st0" d="M419.8,44.9h-2.2v-0.8c0-13.5-11.8-20.3-35.4-20.3h-8c-0.1-3.4-0.5-10.1-2.2-13.9
		c0,0,0,0,0,0c1.4-1,2.3-2.6,2.3-4.3c0-3-2.6-5.5-5.8-5.5c-3.2,0-5.8,2.5-5.8,5.5s2.6,5.5,5.8,5.5c0.2,0,0.3,0,0.5,0l0,0
		c0,0,1.9,5,1.9,12.8h-10.7c-23.4,0-35.2,6.8-35.2,20.3v0.8h-2c-0.9,0-1.6,0.7-1.6,1.5v16.3c0,0.8,0.7,1.5,1.6,1.5h2v17.5
		c0,13.6,11.7,20.4,35.2,20.4h22.1c23.6,0,35.4-6.8,35.4-20.6V64.2h2.2c0.9,0,1.6-0.7,1.6-1.5V46.4
		C421.4,45.6,420.7,44.9,419.8,44.9z M406.4,82c0,7.6-6.9,11.4-20.6,11.4h-28.4c-14.1,0-21.1-3.8-21.1-11.4V45c0-8,7-12,21.1-12
		h29.1c13.3,0,19.9,4,19.9,12V82z"/>
</g>
</svg>
